# xmcd CD database file
#
# Track frame offsets:
#	150
#	12380
#	25025
#	35610
#	47102
#	58755
#	67850
#	81755
#	92192
#	102275
#	114580
#	126327
#
# Disc length: 1810 seconds
#
# Revision: 2
# Processed by: cddbd v1.5.1PL0 Copyright (c) Steve Scherf et al.
# Submitted via: CDex 1.51
#
DISCID=9c07100c
DTITLE=Various Artist - Country and Western Club - Vol. 3
DYEAR=1900
DGENRE=Country
TTITLE0=Johnny Cash - I Walk The Line
TTITLE1=Jim Reeves - Bimbo
TTITLE2=Frankie Laine - Sixteen Tons
TTITLE3=Patsy Cline - Walking After Midnight
TTITLE4=Slim Whitmann - Secret Love
TTITLE5=Bob Luman - Let's Think About Living
TTITLE6=Carl Perkins - Where The Rio De Rosa Fows
TTITLE7=Jerry Wallace - Primrose Lane
TTITLE8=Conway Twitty - It's Only Make Believe
TTITLE9=Skeeter Davis - Your Cheatin' Heart
TTITLE10=Ronnie Hawkins - Cold Cold Heart
TTITLE11=Floyd Cramer - On The Rebound
EXTD=
EXTT0=
EXTT1=
EXTT2=
EXTT3=
EXTT4=
EXTT5=
EXTT6=
EXTT7=
EXTT8=
EXTT9=
EXTT10=
EXTT11=
PLAYORDER=
